<svg id="visual" viewBox="0 0 900 600" width="900" height="600" xmlns="http://www.w3.org/2000/svg" xmlns:xlink="http://www.w3.org/1999/xlink" version="1.1"><rect x="0" y="0" width="900" height="600" fill="#ffffff"></rect><path d="M0 182L30 189.3C60 196.7 120 211.3 180 211.5C240 211.7 300 197.3 360 204.2C420 211 480 239 540 242.5C600 246 660 225 720 211C780 197 840 190 870 186.5L900 183L900 0L870 0C840 0 780 0 720 0C660 0 600 0 540 0C480 0 420 0 360 0C300 0 240 0 180 0C120 0 60 0 30 0L0 0Z" fill="#ebfaf6"></path><path d="M0 199L30 203C60 207 120 215 180 209.7C240 204.3 300 185.7 360 171.8C420 158 480 149 540 142.5C600 136 660 132 720 144C780 156 840 184 870 198L900 212L900 0L870 0C840 0 780 0 720 0C660 0 600 0 540 0C480 0 420 0 360 0C300 0 240 0 180 0C120 0 60 0 30 0L0 0Z" fill="#c0dfd9"></path><path d="M0 105L30 117C60 129 120 153 180 160.2C240 167.3 300 157.7 360 146C420 134.3 480 120.7 540 125.3C600 130 660 153 720 159.8C780 166.7 840 157.3 870 152.7L900 148L900 0L870 0C840 0 780 0 720 0C660 0 600 0 540 0C480 0 420 0 360 0C300 0 240 0 180 0C120 0 60 0 30 0L0 0Z" fill="#95c5be"></path><path d="M0 86L30 91.7C60 97.3 120 108.7 180 111.5C240 114.3 300 108.7 360 104.8C420 101 480 99 540 95.3C600 91.7 660 86.3 720 81.3C780 76.3 840 71.7 870 69.3L900 67L900 0L870 0C840 0 780 0 720 0C660 0 600 0 540 0C480 0 420 0 360 0C300 0 240 0 180 0C120 0 60 0 30 0L0 0Z" fill="#68aba5"></path><path d="M0 60L30 63.5C60 67 120 74 180 76.2C240 78.3 300 75.7 360 68.5C420 61.3 480 49.7 540 48.5C600 47.3 660 56.7 720 59.5C780 62.3 840 58.7 870 56.8L900 55L900 0L870 0C840 0 780 0 720 0C660 0 600 0 540 0C480 0 420 0 360 0C300 0 240 0 180 0C120 0 60 0 30 0L0 0Z" fill="#33918f"></path></svg>